<svg xmlns="http://www.w3.org/2000/svg" viewBox="0 0 35.38 35.38"><defs><style>.cls-1{fill:#98bbf5;}.cls-2,.cls-3{fill:#fff;}.cls-3{fill-rule:evenodd;}</style></defs><g id="Camada_2" data-name="Camada 2"><g id="ELEMENTS"><circle class="cls-1" cx="17.69" cy="17.69" r="17.69" transform="translate(-7.26 19.49) rotate(-49.13)"/><path class="cls-2" d="M8.13,27.7l1.48-5.5a10.16,10.16,0,1,1,4.05,4Zm5.81-3.54.35.21a8.31,8.31,0,1,0-2.83-2.81l.21.35L10.85,25Z"/><path class="cls-3" d="M22.27,18.7a1.7,1.7,0,0,0-1.45-.33c-.38.16-.62.75-.86,1.05a.36.36,0,0,1-.47.1,6.56,6.56,0,0,1-3.29-2.81.39.39,0,0,1,.05-.55,2.4,2.4,0,0,0,.6-1A2.2,2.2,0,0,0,16.58,14a2.71,2.71,0,0,0-.85-1.28,1.16,1.16,0,0,0-1.26.19,2.53,2.53,0,0,0-.89,2,2.8,2.8,0,0,0,.08.64A5.15,5.15,0,0,0,14.28,17a11,11,0,0,0,.64,1,9.91,9.91,0,0,0,2.8,2.6,8.17,8.17,0,0,0,1.74.83,3.86,3.86,0,0,0,2,.32,2.46,2.46,0,0,0,1.85-1.37,1.2,1.2,0,0,0,.08-.7C23.32,19.22,22.66,18.94,22.27,18.7Z"/></g></g></svg>